HIERARCHY
ROOT Hips
{
	OFFSET 0.000000 0.000000 0.000000 
	CHANNELS 6 Xposition Yposition Zposition Yrotation Zrotation Xrotation 
	JOINT Lumbar
	{
		OFFSET 0.000000 0.000000 0.000000 
		CHANNELS 3 Zrotation Xrotation Yrotation
		JOINT Neck
		{
			OFFSET 0.000000 0.445665 0.000000 
			CHANNELS 3 Zrotation Xrotation Yrotation
			End Site
			{
				OFFSET 0.000000 0.227535 0.000000 
			}
		}
		JOINT RightShoulder
		{
			OFFSET 0.019635 0.377685 0.194865 
			CHANNELS 3 Zrotation Xrotation Yrotation
			JOINT RightElbow
			{
				OFFSET 0.000000 -0.243375 0.000000 
				CHANNELS 2 Zrotation Yrotation
				JOINT RightWrist
				{
					OFFSET 0.000000 -0.264825 0.000000 
					CHANNELS 2 Zrotation Xrotation
					End Site
					{
						OFFSET 0.006600 -0.176220 0.000990 
					}
				}
			}
		}
		JOINT LeftShoulder
		{
			OFFSET 0.019635 0.377685 -0.194865 
			CHANNELS 3 Zrotation Xrotation Yrotation
			JOINT LeftElbow
			{
				OFFSET 0.000000 -0.243375 0.000000 
				CHANNELS 2 Zrotation Yrotation
				JOINT LeftWrist
				{
					OFFSET 0.000000 -0.264825 0.000000 
					CHANNELS 2 Zrotation Xrotation
					End Site
					{
						OFFSET 0.006600 -0.176220 -0.000990 
					}
				}
			}
		}
	}
	JOINT RightHip
	{
		OFFSET 0.052140 -0.069960 0.075570 
		CHANNELS 3 Zrotation Xrotation Yrotation
		JOINT RightKnee
		{
			OFFSET 0.000000 -0.402270 0.000000 
			CHANNELS 1 Zrotation
			JOINT RightAnkle
			{
				OFFSET 0.000000 -0.404085 0.000000 
				CHANNELS 3 Zrotation Xrotation Yrotation
				End Site
				{
					OFFSET 0.204105 -0.089430 0.008415 
				}
			}
		}
	}
	JOINT LeftHip
	{
		OFFSET 0.052140 -0.069960 -0.075570 
		CHANNELS 3 Zrotation Xrotation Yrotation
		JOINT LeftKnee
		{
			OFFSET 0.000000 -0.402270 0.000000 
			CHANNELS 1 Zrotation
			JOINT LeftAnkle
			{
				OFFSET 0.000000 -0.404085 0.000000 
				CHANNELS 3 Zrotation Xrotation Yrotation
				End Site
				{
					OFFSET 0.204105 -0.089430 -0.008415 
				}
			}
		}
	}
}
MOTION
Frames: 30
Frame Time: 0.02
-1.09728 0.41329 -0.14495 523.17856 0 6.30147 11.0307 23.15037 -2.1372 -45.36581 -10.10151 -22.66624 67.46692 4.57984 19.54379 108.12234 140.10467 -78.36149 -13.91512 131.41338 39.93785 -63.40614 110.33919 -140.32096 -34.88596 12.93834 8.62318 -14.72841 13.49556 -117.6308 18.63178 11.24143 7.2642 74.60131 -4.84304 8.23084 -119.90117 21.21964 30.39106 13.37907
-1.09345 0.41305 -0.14759 523.37251 0 6.41387 9.99671 22.65502 -1.8752 -45.06421 -10.26271 -22.84799 67.64067 4.12461 19.52131 108.51528 139.71213 -77.71546 -13.37878 131.0142 40.34026 -63.02942 110.76679 -138.93723 -35.87192 12.45897 8.96669 -14.57843 13.30473 -118.12487 18.60303 11.27915 7.35298 74.8611 -4.85771 7.89746 -119.75394 21.20236 30.06302 12.92084
-1.08839 0.41254 -0.15032 523.6504 0 6.51114 8.77562 22.04657 -1.62507 -44.65813 -10.4247 -23.03278 68.01387 3.38704 19.67593 108.91217 139.15289 -76.62915 -12.50671 130.37948 40.82307 -62.426 111.31031 -137.48171 -37.04879 11.97667 9.43145 -14.39602 13.08223 -118.7573 18.55735 11.36426 7.51571 75.23645 -4.86873 7.53457 -119.56365 21.17839 29.64509 12.39504
-1.08376 0.41217 -0.15299 523.89852 0 6.61641 7.62063 21.48573 -1.39371 -44.26777 -10.57497 -23.17865 68.30716 2.76408 19.74797 109.3075 138.69511 -75.77606 -11.818 129.84621 41.28742 -61.94201 111.79471 -136.02789 -38.17831 11.49074 9.84565 -14.22788 12.87255 -119.32651 18.52157 11.43333 7.64607 75.56293 -4.88255 7.18833 -119.37836 21.15556 29.24782 11.89462
-1.07961 0.41173 -0.15574 524.11335 0 6.71691 6.54107 20.93911 -1.06093 -44.00975 -10.77673 -23.48122 68.5518 2.20546 19.82082 109.70717 138.13358 -74.7971 -11.00593 129.34839 41.68501 -61.40137 112.30667 -134.68038 -39.15693 11.01834 10.24118 -14.0603 12.66708 -119.89827 18.47758 11.4801 7.76963 75.87586 -4.89182 6.82683 -119.25207 21.14087 28.93854 11.41289
-1.0742 0.41137 -0.15835 524.4178 0 6.82413 5.26322 20.3364 -0.9404 -43.45302 -10.86802 -23.46076 68.94701 1.44001 19.93879 110.09666 137.74369 -73.96435 -10.36721 128.70914 42.22962 -60.9118 112.78769 -133.1148 -40.48063 10.52231 10.70353 -13.8849 12.44508 -120.49685 18.44614 11.58379 7.92553 76.24363 -4.90976 6.49134 -118.99376 21.10734 28.41902 10.87666
-1.06555 0.4113 -0.16049 524.93452 0 6.94892 3.46541 19.61033 -1.42287 -42.0845 -10.68012 -22.52374 69.70161 0.21422 20.11713 110.45709 137.90702 -73.72003 -10.30579 127.82782 43.25345 -60.72385 113.16639 -130.82657 -42.81776 9.93214 11.32882 -13.68952 12.19961 -121.13896 18.45472 11.83817 8.1524 76.73566 -4.95013 6.22742 -118.37983 21.02619 27.39832 10.21881
-1.05569 0.41131 -0.16251 525.54046 0 7.08172 1.47889 18.83149 -2.11503 -40.42215 -10.37667 -21.26627 70.60227 -1.21694 20.33913 110.8061 138.24202 -73.62451 -10.42678 126.79722 44.40559 -60.57742 113.50792 -128.348 -45.47528 9.32436 12.01551 -13.48856 11.93644 -121.80233 18.47615 12.14706 8.40936 77.27821 -4.99941 5.99232 -117.63535 20.92552 26.15965 9.5071
-1.04643 0.41128 -0.16462 526.11506 0 7.21398 -0.40964 18.07432 -2.69835 -38.90159 -10.10795 -20.17064 71.44188 -2.58342 20.55622 111.15996 138.4723 -73.40709 -10.45248 125.77181 45.43709 -60.33957 113.859 -126.04978 -47.91431 8.7449 12.6691 -13.29462 11.67243 -122.45397 18.49074 12.42774 8.65317 77.79697 -5.04655 5.7489 -116.95174 20.83243 24.98241 8.81232
-1.03691 0.41128 -0.16655 526.65504 0 7.333 -2.35878 17.32213 -3.33919 -37.33929 -9.91147 -19.00524 72.26746 -3.84382 20.718 111.5167 138.80726 -73.3961 -10.51816 124.99289 46.732 -60.39039 114.24505 -123.35591 -50.66562 8.08003 13.3497 -13.08121 11.44471 -123.12012 18.50893 12.72508 8.89804 78.3243 -5.08684 5.48382 -116.25925 20.74584 23.95728 8.14589
-1.02768 0.41123 -0.16883 527.2856 0 7.48123 -4.22103 16.54951 -3.90992 -35.79954 -9.54068 -17.91086 73.15238 -5.36387 21.00097 111.86316 138.96999 -73.00556 -10.54916 123.68056 47.5109 -59.86502 114.54802 -121.43777 -52.84281 7.58825 13.986 -12.9067 11.13768 -123.7581 18.52295 12.99944 9.14596 78.84303 -5.14191 5.27163 -115.55587 20.63954 22.56924 7.40986
-1.01939 0.41101 -0.17208 528.15754 0 7.71203 -5.82167 15.72527 -4.23542 -34.36025 -8.68537 -17.07531 74.18163 -7.60414 21.62588 112.19659 138.59047 -71.45138 -10.43317 120.82602 46.80537 -57.63319 114.62901 -121.74535 -53.33061 7.5849 14.49304 -12.84755 10.61583 -124.32236 18.52202 13.20194 9.40262 79.33547 -5.2497 5.19408 -114.84571 20.49802 20.19527 6.484
-1.01146 0.41075 -0.17568 529.11451 0 7.97122 -7.32257 14.8843 -4.48324 -32.9607 -7.66435 -16.32532 75.26146 -10.08689 22.36724 112.51775 138.03669 -69.52667 -10.27883 117.46066 45.58133 -54.84039 114.62729 -122.83369 -53.23298 7.75524 14.95115 -12.82657 10.01492 -124.85497 18.51664 13.37827 9.65939 79.81496 -5.36931 5.1697 -114.13106 20.33511 17.472 5.49259
-1.00346 0.41051 -0.17914 530.02373 0 8.21507 -8.85243 14.05694 -4.76664 -31.56555 -6.73997 -15.54627 76.30661 -12.42258 23.04232 112.83617 137.5803 -67.82624 -10.14818 114.39985 44.61226 -52.37516 114.66409 -123.54065 -53.41968 7.842 15.42587 -12.7841 9.45061 -125.39544 18.51355 13.56312 9.91084 80.29355 -5.47447 5.12406 -113.4242 20.17197 14.93217 4.53833
-0.99503 0.41024 -0.1825 530.97526 0 8.46983 -10.4591 13.20257 -5.05574 -30.06501 -5.72204 -14.71409 77.40665 -14.92268 23.77449 113.18904 137.05487 -65.89643 -9.99755 111.02839 43.56455 -49.60647 114.69619 -124.35294 -53.54211 7.94767 15.927 -12.75937 8.88314 -125.96477 18.50963 13.76414 10.1861 80.8032 -5.61886 5.0673 -112.68795 20.04834 12.2762 3.55005
-0.9876 0.41004 -0.18616 531.8568 0 8.70805 -11.87834 12.40086 -5.31234 -28.79758 -4.86044 -14.01766 78.40207 -17.1334 24.41602 113.4677 136.62724 -64.35241 -9.8767 108.18414 42.55776 -47.33377 114.71833 -125.13386 -53.65317 8.05554 16.36012 -12.70627 8.3033 -126.46555 18.50638 13.92457 10.4108 81.24368 -5.6835 5.04578 -112.01422 19.83987 9.78728 2.61904
-0.98278 0.41006 -0.19054 532.53152 0 8.89738 -12.81346 11.75269 -5.49224 -28.1634 -4.47764 -13.6716 79.09817 -18.49999 24.7678 113.54185 136.53271 -63.98271 -9.85073 106.92651 41.77303 -46.58841 114.73796 -125.6373 -53.89089 8.12627 16.62127 -12.57055 7.71246 -126.78933 18.50469 13.97868 10.50099 81.50207 -5.53158 5.11001 -111.5098 19.38373 7.80468 1.85395
-0.97898 0.41015 -0.1952 533.13119 0 9.06819 -13.56032 11.15806 -5.64211 -27.76424 -4.25732 -13.46142 79.68592 -19.56341 25.02602 113.54232 136.53833 -64.01003 -9.85465 106.21685 41.04975 -46.35749 114.74961 -126.0831 -54.13282 8.19345 16.8144 -12.40414 7.11139 -127.04394 18.50397 13.99265 10.53938 81.68994 -5.29801 5.20739 -111.07024 18.84717 6.01319 1.15205
-0.97475 0.41021 -0.19975 533.75986 0 9.24524 -14.38698 10.536 -5.80864 -27.25926 -3.95878 -13.19301 80.32149 -20.75505 25.33424 113.57822 136.48338 -63.84268 -9.84176 105.25322 40.30975 -45.8775 114.76209 -126.55624 -54.36164 8.26285 17.03607 -12.2484 6.51241 -127.32752 18.50375 14.0252 10.59765 81.90606 -5.09717 5.28862 -110.60414 18.35892 4.1589 0.42508
-0.97039 0.41026 -0.20426 534.4126 0 9.43319 -15.23631 9.92461 -5.96009 -26.75066 -3.67255 -12.9127 80.96571 -21.99507 25.6156 113.60527 136.48448 -63.72213 -9.84093 104.29227 39.50565 -45.4427 114.78384 -127.05193 -54.6181 8.33574 17.2669 -12.10747 5.92094 -127.62171 18.49969 14.05561 10.67048 82.13786 -4.91412 5.37663 -110.12413 17.81758 2.18131 -0.32563
-0.96654 0.41034 -0.20891 534.9969 0 9.59276 -15.99285 9.30621 -6.13651 -26.30577 -3.40186 -12.68812 81.56452 -23.05986 25.92837 113.63368 136.39678 -63.60382 -9.82296 103.46287 38.85486 -45.04294 114.78501 -127.47646 -54.82481 8.39826 17.46208 -11.92833 5.31312 -127.87616 18.50357 14.08107 10.70184 82.32035 -4.67587 5.45727 -109.69018 17.37133 0.52234 -1.00349
-0.96374 0.41051 -0.21391 535.40415 0 9.68618 -16.55714 8.63624 -6.39151 -25.9727 -3.13191 -12.58675 82.07195 -23.7064 26.35668 113.68153 136.02364 -63.39113 -9.74691 102.864 38.62867 -44.62056 114.73601 -127.71801 -54.90196 8.43214 17.58465 -11.64785 4.6577 -128.05188 18.53213 14.10433 10.62092 82.38409 -4.29311 5.51312 -109.35416 17.17676 -0.40267 -1.55727
-0.96143 0.4107 -0.21901 535.74554 0 9.75023 -17.03154 7.96118 -6.67244 -25.69688 -2.8734 -12.53601 82.53544 -24.18694 26.81794 113.73378 135.56143 -63.16963 -9.65339 102.38162 38.55473 -44.2179 114.66632 -127.88593 -54.93013 8.45495 17.67222 -11.33066 3.98784 -128.1876 18.56814 14.12375 10.50179 82.40049 -3.85977 5.55964 -109.0649 17.08491 -0.99347 -2.02647
-0.95894 0.41088 -0.22403 536.12132 0 9.82237 -17.53603 7.30085 -6.94059 -25.39877 -2.61194 -12.45992 83.01423 -24.74843 27.25995 113.78562 135.15129 -62.95604 -9.57031 101.84681 38.40235 -43.80402 114.60316 -128.08428 -54.97788 8.48257 17.76997 -11.03198 3.32784 -128.33243 18.59877 14.14402 10.40726 82.43872 -3.45753 5.60746 -108.76296 16.96815 -1.67034 -2.49567
-0.95628 0.41108 -0.22925 536.47716 0 9.9155 -18.0799 6.58931 -7.21257 -25.09242 -2.34609 -12.39813 83.51024 -25.27817 27.71772 113.82825 134.69585 -62.73893 -9.47774 101.32598 38.28872 -43.41478 114.55089 -128.29476 -55.03683 8.5113 17.88942 -10.72354 2.65216 -128.51278 18.63774 14.16684 10.28124 82.47384 -3.01843 5.66803 -108.42675 16.76308 -2.61807 -3.13155
-0.95409 0.41123 -0.23405 536.85802 0 9.95891 -18.52215 5.98334 -7.48225 -24.81469 -2.09059 -12.31729 83.95982 -25.83613 28.15055 113.892 134.31202 -62.52275 -9.40035 100.79997 38.13243 -42.97538 114.47228 -128.46208 -55.0607 8.53491 17.95632 -10.42837 2.00756 -128.61099 18.66125 14.18375 10.21133 82.50424 -2.64488 5.70048 -108.17261 16.75933 -2.92542 -3.39278
-0.95304 0.41121 -0.23773 537.33977 0 9.86586 -18.71256 5.66361 -7.74675 -24.59321 -1.85537 -12.16611 84.30559 -26.534 28.51646 114.01382 134.15029 -62.30308 -9.36957 100.20107 37.79891 -42.36474 114.31649 -128.53636 -55.00156 8.54839 17.8864 -10.16813 1.43811 -128.48879 18.63896 14.18735 10.31487 82.5413 -2.46766 5.64778 -108.1297 17.35721 -1.54261 -2.71522
-0.95245 0.41114 -0.24096 537.84614 0 9.72499 -18.80327 5.45169 -8.00658 -24.39914 -1.63043 -11.99411 84.6042 -27.2634 28.85473 114.15691 134.06286 -62.08426 -9.35447 99.59607 37.421 -41.7058 114.13671 -128.56833 -54.90847 8.55684 17.76516 -9.92475 0.90329 -128.28633 18.60113 14.18494 10.47458 82.57417 -2.3581 5.5686 -108.16822 18.14214 0.46943 -1.65329
-0.95169 0.41111 -0.24432 538.33171 0 9.61041 -18.9364 5.19389 -8.26403 -24.19695 -1.40353 -11.83474 84.91595 -27.96598 29.19956 114.29018 133.93904 -61.86839 -9.33174 99.01063 37.07784 -41.08449 113.9742 -128.61468 -54.82972 8.56678 17.66802 -9.68072 0.3618 -128.12316 18.57123 14.18416 10.60304 82.60395 -2.21592 5.50798 -108.1717 18.79436 2.19276 -0.71406
-0.95079 0.41103 -0.248 538.8567 0 9.47589 -19.07936 4.92103 -8.54224 -23.97812 -1.16552 -11.66475 85.26091 -28.7157 29.5708 114.42445 133.82268 -61.63821 -9.31043 98.35791 36.67887 -40.39722 113.78414 -128.67932 -54.75391 8.57975 17.56651 -9.40543 -0.21908 -127.94658 18.53778 14.18793 10.75499 82.65283 -2.07943 5.42015 -108.16845 19.64816 3.94814 0.02284
